<svg width="178" height="36" viewBox="0 0 178 36" fill="none" xmlns="http://www.w3.org/2000/svg">
<path d="M0.65 27.7C1.17 27.7 1.61 27.52 1.97 27.16C2.35 26.78 2.55 26.33 2.57 25.81V9.16C2.55 8.44 2.22 7.9 1.58 7.54C1.3 7.38 0.99 7.3 0.65 7.3H0.26V7H9.38L9.35 7.3H8.99C8.47 7.3 8.02 7.48 7.64 7.84C7.26 8.2 7.07 8.64 7.07 9.16V25.81C7.07 26.33 7.26 26.78 7.64 27.16C8.02 27.52 8.47 27.7 8.99 27.7H9.35L9.38 28H0.26V27.7H0.65ZM30.44 33.1C28.98 33.86 27.65 34.24 26.45 34.24C25.25 34.24 24.17 34.07 23.21 33.73C20.83 32.87 18.4 30.9 15.92 27.82L8.03 18.1L15.14 8.68C15.3 8.48 15.38 8.3 15.38 8.14C15.38 7.98 15.35 7.84 15.29 7.72C15.13 7.42 14.85 7.27 14.45 7.27H14.15V7H21.02V7.27H20.9C19.56 7.27 18.47 7.75 17.63 8.71L11.78 15.67L19.94 25.81C21.76 28.21 23.47 29.95 25.07 31.03C26.67 32.11 28.45 32.7 30.41 32.8L30.44 33.1ZM33.9723 27.7C34.4923 27.7 34.9323 27.52 35.2923 27.16C35.6723 26.78 35.8723 26.33 35.8923 25.81V9.1C35.8323 8.4 35.5023 7.88 34.9023 7.54C34.6023 7.38 34.2923 7.3 33.9723 7.3H33.5823V7H42.0123C42.8923 7 43.6623 6.93 44.3223 6.79C44.9823 6.65 45.4123 6.54 45.6123 6.46V11.71H45.2823V11.35C45.3023 10.45 45.0423 9.73 44.5023 9.19C43.9823 8.63 43.2723 8.33 42.3723 8.29H40.3923V17.02H45.1623C45.9023 17 46.5123 16.75 46.9923 16.27C47.4723 15.77 47.7123 15.16 47.7123 14.44V14.17H47.9823V21.1H47.7123V20.86C47.7123 20.12 47.4723 19.51 46.9923 19.03C46.5123 18.55 45.9123 18.3 45.1923 18.28H40.3923V26.71H46.2423C47.7023 26.71 48.9223 26.29 49.9023 25.45C50.9023 24.61 51.6423 23.42 52.1223 21.88H52.4223L51.0123 28H33.5823V27.7H33.9723ZM90.8227 31.12C91.1627 31.32 91.5427 31.5 91.9627 31.66C92.3827 31.84 92.7827 31.96 93.1627 32.02C93.5627 32.1 93.9927 32.14 94.4527 32.14C94.9327 32.14 95.4227 32.08 95.9227 31.96L96.0427 32.26C94.9227 32.8 93.7927 33.07 92.6527 33.07C90.0327 33.07 87.3627 31.62 84.6427 28.72L70.4227 13.63V25.9C70.4227 26.4 70.6027 26.83 70.9627 27.19C71.3227 27.53 71.7527 27.7 72.2527 27.7H72.8227V28H63.7327V27.7H64.2727C64.7927 27.7 65.2327 27.53 65.5927 27.19C65.9527 26.83 66.1327 26.39 66.1327 25.87V9.04C65.1527 7.92 64.4127 7.14 63.9127 6.7C63.4127 6.24 62.9727 5.86 62.5927 5.56C62.1927 5.26 61.8127 5.01 61.4527 4.81C60.6127 4.33 59.9427 4.05 59.4427 3.97C58.9227 3.89 58.4427 3.85 58.0027 3.85C57.5427 3.85 57.0527 3.94 56.5327 4.12L56.4127 3.82C57.5127 3.18 58.6427 2.86 59.8027 2.86C62.3227 2.86 64.9927 4.36 67.8127 7.36L81.2227 21.61V9.13C81.2027 8.61 81.0127 8.18 80.6527 7.84C80.2927 7.48 79.8627 7.3 79.3627 7.3H78.8227V7H87.9127V7.3H87.3427C86.8427 7.3 86.4127 7.48 86.0527 7.84C85.6927 8.18 85.5027 8.6 85.4827 9.1V26.17L85.9627 26.65C86.0827 26.77 86.2627 26.98 86.5027 27.28C86.7627 27.56 86.9927 27.8 87.1927 28C87.3927 28.22 87.6427 28.49 87.9427 28.81C88.2627 29.13 88.5527 29.41 88.8127 29.65C89.0927 29.89 89.4127 30.15 89.7727 30.43C90.1527 30.71 90.5027 30.94 90.8227 31.12Z" fill="black"/>
<path d="M124.88 32.17C126.96 32.17 128.64 31.76 129.92 30.94L130.13 31.18C128.41 33.56 126.27 34.88 123.71 35.14C123.17 35.2 122.7 35.23 122.3 35.23C121.92 35.23 121.47 35.21 120.95 35.17C120.45 35.15 119.74 35.02 118.82 34.78C117.9 34.54 117.09 34.29 116.39 34.03C115.69 33.79 114.88 33.46 113.96 33.04C113.04 32.64 112.28 32.28 111.68 31.96C111.08 31.66 110.36 31.29 109.52 30.85C108.7 30.43 107.98 30.07 107.36 29.77C106.74 29.47 106.14 29.21 105.56 28.99C103.92 28.33 102.24 28 100.52 28V27.7H100.91C101.43 27.7 101.87 27.52 102.23 27.16C102.61 26.8 102.81 26.35 102.83 25.81V9.19C102.81 8.65 102.61 8.2 102.23 7.84C101.87 7.48 101.43 7.3 100.91 7.3H100.52V7H109.64L109.61 7.3H109.31C108.55 7.3 107.98 7.61 107.6 8.23C107.42 8.51 107.33 8.83 107.33 9.19V26.59C107.33 27.25 107.46 27.71 107.72 27.97C107.98 28.21 108.27 28.38 108.59 28.48C116.11 30.94 121.54 32.17 124.88 32.17ZM149.863 0.909998C150.123 0.909998 150.393 0.919998 150.673 0.939998V1.24C148.313 1.42 146.613 2.54 145.573 4.6C144.893 5.94 144.553 7.64 144.553 9.7V20.41C144.513 22.93 143.703 24.9 142.123 26.32C140.543 27.72 138.283 28.42 135.343 28.42C132.423 28.42 130.093 27.7 128.353 26.26C126.613 24.8 125.753 22.86 125.773 20.44V8.77C125.773 8.35 125.613 8 125.293 7.72C124.993 7.44 124.623 7.3 124.183 7.3H123.703V7H132.343V7.3H131.863C131.243 7.3 130.783 7.54 130.482 8.02C130.342 8.24 130.272 8.48 130.272 8.74V20.2C130.272 22.32 130.823 24 131.923 25.24C133.023 26.48 134.473 27.1 136.273 27.1C136.293 27.1 136.303 27.1 136.303 27.1C136.303 27.1 136.313 27.1 136.333 27.1C138.113 27.1 139.573 26.52 140.713 25.36C141.853 24.2 142.423 22.61 142.423 20.59V9.7C142.423 7 143.133 4.86 144.553 3.28C145.993 1.7 147.763 0.909998 149.863 0.909998ZM159.439 27.7C159.959 27.7 160.399 27.52 160.759 27.16C161.139 26.78 161.339 26.33 161.359 25.81V9.1C161.299 8.4 160.969 7.88 160.369 7.54C160.069 7.38 159.759 7.3 159.439 7.3H159.049V7H167.479C168.359 7 169.129 6.93 169.789 6.79C170.449 6.65 170.879 6.54 171.079 6.46V11.71H170.749V11.35C170.769 10.45 170.509 9.73 169.969 9.19C169.449 8.63 168.739 8.33 167.839 8.29H165.859V17.02H170.629C171.369 17 171.979 16.75 172.459 16.27C172.939 15.77 173.179 15.16 173.179 14.44V14.17H173.449V21.1H173.179V20.86C173.179 20.12 172.939 19.51 172.459 19.03C171.979 18.55 171.379 18.3 170.659 18.28H165.859V26.71H171.709C173.169 26.71 174.389 26.29 175.369 25.45C176.369 24.61 177.109 23.42 177.589 21.88H177.889L176.479 28H159.049V27.7H159.439Z" fill="#FF3C57"/>
</svg>
